<mxfile host="app.diagrams.net" modified="2020-10-30T23:54:03.412Z" agent="5.0 (Macintosh; Intel Mac OS X 10_13_3) AppleWebKit/537.36 (KHTML, like Gecko) Chrome/86.0.4240.111 Safari/537.36" etag="bC4HmZFWTNGypSwkgzxG" version="13.8.8" type="github">
  <diagram id="AlHb7j8pFyJAPcklO5Kr" name="Page-1">
    <mxGraphModel dx="1956" dy="1810" grid="0" gridSize="10" guides="1" tooltips="1" connect="1" arrows="1" fold="1" page="1" pageScale="1" pageWidth="850" pageHeight="1100" math="0" shadow="0">
      <root>
        <mxCell id="0" />
        <mxCell id="1" parent="0" />
        <mxCell id="cMhnpMqXnZmd4JkkhB33-29" style="edgeStyle=orthogonalEdgeStyle;orthogonalLoop=1;jettySize=auto;html=1;exitX=1;exitY=0.5;exitDx=0;exitDy=0;dashed=1;endArrow=none;endFill=0;strokeColor=#000000;strokeWidth=2;fontColor=#000000;curved=1;entryX=0.5;entryY=0;entryDx=0;entryDy=0;" edge="1" parent="1" source="cMhnpMqXnZmd4JkkhB33-1" target="cMhnpMqXnZmd4JkkhB33-45">
          <mxGeometry relative="1" as="geometry">
            <mxPoint x="720" y="90" as="targetPoint" />
          </mxGeometry>
        </mxCell>
        <mxCell id="cMhnpMqXnZmd4JkkhB33-30" style="edgeStyle=orthogonalEdgeStyle;curved=1;orthogonalLoop=1;jettySize=auto;html=1;dashed=1;endArrow=none;endFill=0;strokeColor=#000000;strokeWidth=2;fontColor=#000000;exitX=0;exitY=0.5;exitDx=0;exitDy=0;" edge="1" parent="1" source="cMhnpMqXnZmd4JkkhB33-1">
          <mxGeometry relative="1" as="geometry">
            <mxPoint x="110" y="120" as="targetPoint" />
          </mxGeometry>
        </mxCell>
        <mxCell id="cMhnpMqXnZmd4JkkhB33-48" style="edgeStyle=orthogonalEdgeStyle;curved=1;orthogonalLoop=1;jettySize=auto;html=1;endArrow=none;endFill=0;strokeWidth=5;fontColor=#000000;exitX=0.5;exitY=1;exitDx=0;exitDy=0;strokeColor=#CCCCCC;" edge="1" parent="1" source="cMhnpMqXnZmd4JkkhB33-1" target="cMhnpMqXnZmd4JkkhB33-32">
          <mxGeometry relative="1" as="geometry" />
        </mxCell>
        <mxCell id="cMhnpMqXnZmd4JkkhB33-1" value="CS fundatmentals" style="rounded=1;whiteSpace=wrap;html=1;fillColor=#fff2cc;strokeColor=#d6b656;strokeWidth=3;" vertex="1" parent="1">
          <mxGeometry x="335" y="-20" width="120" height="40" as="geometry" />
        </mxCell>
        <mxCell id="cMhnpMqXnZmd4JkkhB33-23" style="edgeStyle=orthogonalEdgeStyle;orthogonalLoop=1;jettySize=auto;html=1;entryX=-0.007;entryY=0.3;entryDx=0;entryDy=0;entryPerimeter=0;endArrow=none;endFill=0;dashed=1;exitX=1;exitY=0.75;exitDx=0;exitDy=0;strokeWidth=2;curved=1;" edge="1" parent="1" source="cMhnpMqXnZmd4JkkhB33-8" target="cMhnpMqXnZmd4JkkhB33-46">
          <mxGeometry relative="1" as="geometry">
            <mxPoint x="316.0999999999999" y="528" as="targetPoint" />
          </mxGeometry>
        </mxCell>
        <mxCell id="cMhnpMqXnZmd4JkkhB33-50" style="edgeStyle=orthogonalEdgeStyle;curved=1;orthogonalLoop=1;jettySize=auto;html=1;entryX=0.75;entryY=0;entryDx=0;entryDy=0;endArrow=none;endFill=0;strokeWidth=2;fontColor=#000000;dashed=1;" edge="1" parent="1" source="cMhnpMqXnZmd4JkkhB33-32" target="cMhnpMqXnZmd4JkkhB33-43">
          <mxGeometry relative="1" as="geometry" />
        </mxCell>
        <mxCell id="cMhnpMqXnZmd4JkkhB33-32" value="Learn a programming language" style="rounded=1;whiteSpace=wrap;html=1;shadow=0;strokeColor=#d6b656;strokeWidth=3;fillColor=#fff2cc;" vertex="1" parent="1">
          <mxGeometry x="510" y="380" width="195" height="50" as="geometry" />
        </mxCell>
        <mxCell id="cMhnpMqXnZmd4JkkhB33-34" value="" style="group" vertex="1" connectable="0" parent="1">
          <mxGeometry x="650" y="130" width="160" height="160" as="geometry" />
        </mxCell>
        <mxCell id="cMhnpMqXnZmd4JkkhB33-14" value="How does computer work" style="rounded=1;whiteSpace=wrap;html=1;shadow=0;strokeWidth=1;fillColor=#008a00;strokeColor=#005700;fontColor=#ffffff;" vertex="1" parent="cMhnpMqXnZmd4JkkhB33-34">
          <mxGeometry width="160" height="40" as="geometry" />
        </mxCell>
        <mxCell id="cMhnpMqXnZmd4JkkhB33-15" value="How does the internet work" style="rounded=1;whiteSpace=wrap;html=1;shadow=0;strokeWidth=1;fillColor=#008a00;strokeColor=#005700;fontColor=#ffffff;" vertex="1" parent="cMhnpMqXnZmd4JkkhB33-34">
          <mxGeometry y="60" width="160" height="40" as="geometry" />
        </mxCell>
        <mxCell id="cMhnpMqXnZmd4JkkhB33-16" value="GIt - Version Control" style="rounded=1;whiteSpace=wrap;html=1;shadow=0;strokeWidth=1;fillColor=#008a00;strokeColor=#005700;fontColor=#ffffff;" vertex="1" parent="cMhnpMqXnZmd4JkkhB33-34">
          <mxGeometry y="120" width="160" height="40" as="geometry" />
        </mxCell>
        <mxCell id="cMhnpMqXnZmd4JkkhB33-25" value="" style="group" vertex="1" connectable="0" parent="1">
          <mxGeometry x="-102.5" y="120" width="290" height="390" as="geometry" />
        </mxCell>
        <mxCell id="cMhnpMqXnZmd4JkkhB33-27" value="" style="group" vertex="1" connectable="0" parent="cMhnpMqXnZmd4JkkhB33-25">
          <mxGeometry width="290" height="390" as="geometry" />
        </mxCell>
        <mxCell id="cMhnpMqXnZmd4JkkhB33-2" value="Basic Terminal usage" style="rounded=1;whiteSpace=wrap;html=1;fillColor=#008a00;strokeColor=#005700;fontColor=#ffffff;" vertex="1" parent="cMhnpMqXnZmd4JkkhB33-27">
          <mxGeometry x="80" width="120" height="60" as="geometry" />
        </mxCell>
        <mxCell id="cMhnpMqXnZmd4JkkhB33-3" value="data structures &amp;amp; algorithms" style="rounded=1;whiteSpace=wrap;html=1;fillColor=#008a00;strokeColor=#005700;fontColor=#ffffff;" vertex="1" parent="cMhnpMqXnZmd4JkkhB33-27">
          <mxGeometry x="80" y="90" width="120" height="60" as="geometry" />
        </mxCell>
        <mxCell id="cMhnpMqXnZmd4JkkhB33-4" value="APIs" style="rounded=1;whiteSpace=wrap;html=1;" vertex="1" parent="cMhnpMqXnZmd4JkkhB33-27">
          <mxGeometry x="10" y="170" width="120" height="60" as="geometry" />
        </mxCell>
        <mxCell id="cMhnpMqXnZmd4JkkhB33-5" value="REST" style="rounded=1;whiteSpace=wrap;html=1;" vertex="1" parent="cMhnpMqXnZmd4JkkhB33-27">
          <mxGeometry x="160" y="170" width="120" height="60" as="geometry" />
        </mxCell>
        <mxCell id="cMhnpMqXnZmd4JkkhB33-7" value="Serialisation" style="rounded=1;whiteSpace=wrap;html=1;" vertex="1" parent="cMhnpMqXnZmd4JkkhB33-27">
          <mxGeometry y="330" width="120" height="60" as="geometry" />
        </mxCell>
        <mxCell id="cMhnpMqXnZmd4JkkhB33-8" value="linux" style="rounded=1;whiteSpace=wrap;html=1;fillColor=#fff2cc;strokeColor=#d6b656;" vertex="1" parent="cMhnpMqXnZmd4JkkhB33-27">
          <mxGeometry x="170" y="330" width="120" height="60" as="geometry" />
        </mxCell>
        <mxCell id="cMhnpMqXnZmd4JkkhB33-6" value="structure vs unstructured data" style="rounded=1;whiteSpace=wrap;html=1;fillColor=#008a00;strokeColor=#005700;fontColor=#ffffff;" vertex="1" parent="cMhnpMqXnZmd4JkkhB33-27">
          <mxGeometry x="80" y="250" width="120" height="60" as="geometry" />
        </mxCell>
        <mxCell id="cMhnpMqXnZmd4JkkhB33-44" value="" style="rounded=1;whiteSpace=wrap;html=1;shadow=0;strokeColor=#FFE599;strokeWidth=3;fillColor=none;fontColor=#000000;" vertex="1" parent="1">
          <mxGeometry x="-120" y="110" width="330" height="430" as="geometry" />
        </mxCell>
        <mxCell id="cMhnpMqXnZmd4JkkhB33-45" value="" style="rounded=1;whiteSpace=wrap;html=1;shadow=0;strokeWidth=3;fillColor=none;fontColor=#000000;strokeColor=#B9E0A5;" vertex="1" parent="1">
          <mxGeometry x="610" y="100" width="220" height="220" as="geometry" />
        </mxCell>
        <mxCell id="cMhnpMqXnZmd4JkkhB33-47" value="" style="group" vertex="1" connectable="0" parent="1">
          <mxGeometry x="260" y="360" width="165" height="160" as="geometry" />
        </mxCell>
        <mxCell id="cMhnpMqXnZmd4JkkhB33-46" value="" style="rounded=1;whiteSpace=wrap;html=1;shadow=0;strokeWidth=3;fillColor=none;fontColor=#000000;strokeColor=#FFE599;" vertex="1" parent="cMhnpMqXnZmd4JkkhB33-47">
          <mxGeometry width="165" height="160" as="geometry" />
        </mxCell>
        <mxCell id="cMhnpMqXnZmd4JkkhB33-18" value="CLI" style="rounded=1;whiteSpace=wrap;html=1;shadow=0;strokeWidth=1;fillColor=#fff2cc;strokeColor=#d6b656;" vertex="1" parent="cMhnpMqXnZmd4JkkhB33-47">
          <mxGeometry x="12.5" y="25" width="60" height="30" as="geometry" />
        </mxCell>
        <mxCell id="cMhnpMqXnZmd4JkkhB33-19" value="Vim" style="rounded=1;whiteSpace=wrap;html=1;shadow=0;strokeWidth=1;fillColor=#fff2cc;strokeColor=#d6b656;" vertex="1" parent="cMhnpMqXnZmd4JkkhB33-47">
          <mxGeometry x="92.5" y="25" width="60" height="30" as="geometry" />
        </mxCell>
        <mxCell id="cMhnpMqXnZmd4JkkhB33-20" value="Shell scripting" style="rounded=1;whiteSpace=wrap;html=1;shadow=0;strokeWidth=1;fillColor=#fff2cc;strokeColor=#d6b656;" vertex="1" parent="cMhnpMqXnZmd4JkkhB33-47">
          <mxGeometry x="12.5" y="65" width="140" height="30" as="geometry" />
        </mxCell>
        <mxCell id="cMhnpMqXnZmd4JkkhB33-21" value="Cronjobs" style="rounded=1;whiteSpace=wrap;html=1;shadow=0;strokeWidth=1;" vertex="1" parent="cMhnpMqXnZmd4JkkhB33-47">
          <mxGeometry x="12.5" y="105" width="140" height="30" as="geometry" />
        </mxCell>
        <mxCell id="cMhnpMqXnZmd4JkkhB33-51" value="Testing" style="rounded=1;whiteSpace=wrap;html=1;shadow=0;strokeColor=#d6b656;strokeWidth=3;fillColor=#fff2cc;" vertex="1" parent="1">
          <mxGeometry x="540" y="590" width="150" height="40" as="geometry" />
        </mxCell>
        <mxCell id="cMhnpMqXnZmd4JkkhB33-52" style="edgeStyle=orthogonalEdgeStyle;curved=1;orthogonalLoop=1;jettySize=auto;html=1;endArrow=none;endFill=0;strokeWidth=5;fontColor=#000000;strokeColor=#CCCCCC;exitX=0.5;exitY=1;exitDx=0;exitDy=0;entryX=0.451;entryY=0.007;entryDx=0;entryDy=0;entryPerimeter=0;" edge="1" parent="1" source="cMhnpMqXnZmd4JkkhB33-32" target="cMhnpMqXnZmd4JkkhB33-51">
          <mxGeometry relative="1" as="geometry">
            <mxPoint x="600" y="440" as="sourcePoint" />
            <mxPoint x="630" y="580" as="targetPoint" />
          </mxGeometry>
        </mxCell>
        <mxCell id="cMhnpMqXnZmd4JkkhB33-62" style="edgeStyle=orthogonalEdgeStyle;curved=1;orthogonalLoop=1;jettySize=auto;html=1;entryX=1.003;entryY=0.206;entryDx=0;entryDy=0;entryPerimeter=0;dashed=1;endArrow=none;endFill=0;strokeColor=#000000;strokeWidth=2;fontColor=#000000;" edge="1" parent="1" source="cMhnpMqXnZmd4JkkhB33-53" target="cMhnpMqXnZmd4JkkhB33-61">
          <mxGeometry relative="1" as="geometry" />
        </mxCell>
        <mxCell id="cMhnpMqXnZmd4JkkhB33-69" style="edgeStyle=orthogonalEdgeStyle;curved=1;orthogonalLoop=1;jettySize=auto;html=1;entryX=0.5;entryY=0;entryDx=0;entryDy=0;dashed=1;endArrow=none;endFill=0;strokeColor=#000000;strokeWidth=2;fontColor=#000000;" edge="1" parent="1" source="cMhnpMqXnZmd4JkkhB33-53" target="cMhnpMqXnZmd4JkkhB33-68">
          <mxGeometry relative="1" as="geometry" />
        </mxCell>
        <mxCell id="cMhnpMqXnZmd4JkkhB33-53" value="Database fundamentals" style="rounded=1;whiteSpace=wrap;html=1;shadow=0;strokeColor=#005700;strokeWidth=3;fillColor=#008a00;fontColor=#ffffff;" vertex="1" parent="1">
          <mxGeometry x="579" y="698" width="185" height="40" as="geometry" />
        </mxCell>
        <mxCell id="cMhnpMqXnZmd4JkkhB33-42" value="" style="group" vertex="1" connectable="0" parent="1">
          <mxGeometry x="352.5" y="555" width="142.5" height="163" as="geometry" />
        </mxCell>
        <mxCell id="cMhnpMqXnZmd4JkkhB33-38" value="Python" style="rounded=1;whiteSpace=wrap;html=1;shadow=0;strokeColor=#82b366;strokeWidth=1;fillColor=#d5e8d4;" vertex="1" parent="cMhnpMqXnZmd4JkkhB33-42">
          <mxGeometry width="120" height="30" as="geometry" />
        </mxCell>
        <mxCell id="cMhnpMqXnZmd4JkkhB33-39" value="Java" style="rounded=1;whiteSpace=wrap;html=1;shadow=0;strokeColor=#d6b656;strokeWidth=1;fillColor=#fff2cc;" vertex="1" parent="cMhnpMqXnZmd4JkkhB33-42">
          <mxGeometry y="40" width="120" height="30" as="geometry" />
        </mxCell>
        <mxCell id="cMhnpMqXnZmd4JkkhB33-40" value="Scala" style="rounded=1;whiteSpace=wrap;html=1;shadow=0;strokeWidth=1;fillColor=#f9f7ed;strokeColor=#FFE599;" vertex="1" parent="cMhnpMqXnZmd4JkkhB33-42">
          <mxGeometry y="80" width="120" height="30" as="geometry" />
        </mxCell>
        <mxCell id="cMhnpMqXnZmd4JkkhB33-41" value="Go" style="rounded=1;whiteSpace=wrap;html=1;shadow=0;strokeColor=#d6b656;strokeWidth=1;fillColor=#fff2cc;" vertex="1" parent="cMhnpMqXnZmd4JkkhB33-42">
          <mxGeometry y="120" width="120" height="30" as="geometry" />
        </mxCell>
        <mxCell id="cMhnpMqXnZmd4JkkhB33-43" value="" style="rounded=1;whiteSpace=wrap;html=1;shadow=0;strokeColor=#FFE599;strokeWidth=3;fontColor=#000000;fillColor=none;" vertex="1" parent="cMhnpMqXnZmd4JkkhB33-42">
          <mxGeometry x="-22.5" y="-17" width="165" height="180" as="geometry" />
        </mxCell>
        <mxCell id="cMhnpMqXnZmd4JkkhB33-55" style="edgeStyle=orthogonalEdgeStyle;curved=1;orthogonalLoop=1;jettySize=auto;html=1;endArrow=none;endFill=0;strokeWidth=5;fontColor=#000000;strokeColor=#CCCCCC;exitX=0.447;exitY=0.028;exitDx=0;exitDy=0;exitPerimeter=0;" edge="1" parent="1" source="cMhnpMqXnZmd4JkkhB33-53">
          <mxGeometry relative="1" as="geometry">
            <mxPoint x="618" y="735" as="sourcePoint" />
            <mxPoint x="618" y="632" as="targetPoint" />
          </mxGeometry>
        </mxCell>
        <mxCell id="cMhnpMqXnZmd4JkkhB33-57" value="SQL" style="rounded=1;whiteSpace=wrap;html=1;shadow=0;strokeColor=#005700;strokeWidth=1;fillColor=#008a00;fontColor=#ffffff;" vertex="1" parent="1">
          <mxGeometry x="314.25" y="764" width="137" height="32" as="geometry" />
        </mxCell>
        <mxCell id="cMhnpMqXnZmd4JkkhB33-58" value="ACID transactions" style="rounded=1;whiteSpace=wrap;html=1;shadow=0;strokeColor=#005700;strokeWidth=1;fillColor=#008a00;fontColor=#ffffff;" vertex="1" parent="1">
          <mxGeometry x="314.25" y="847" width="140.75" height="31" as="geometry" />
        </mxCell>
        <mxCell id="cMhnpMqXnZmd4JkkhB33-59" value="Normalisation" style="rounded=1;whiteSpace=wrap;html=1;shadow=0;strokeColor=#005700;strokeWidth=1;fillColor=#008a00;fontColor=#ffffff;" vertex="1" parent="1">
          <mxGeometry x="314.25" y="803" width="138" height="32" as="geometry" />
        </mxCell>
        <mxCell id="cMhnpMqXnZmd4JkkhB33-61" value="" style="rounded=1;whiteSpace=wrap;html=1;shadow=0;strokeWidth=3;fillColor=none;fontColor=#000000;strokeColor=#B9E0A5;" vertex="1" parent="1">
          <mxGeometry x="287.63" y="743" width="194" height="152" as="geometry" />
        </mxCell>
        <mxCell id="cMhnpMqXnZmd4JkkhB33-63" value="CAP theorem" style="rounded=1;whiteSpace=wrap;html=1;shadow=0;strokeColor=#005700;strokeWidth=1;fillColor=#008a00;fontColor=#ffffff;" vertex="1" parent="1">
          <mxGeometry x="818" y="793" width="123" height="31" as="geometry" />
        </mxCell>
        <mxCell id="cMhnpMqXnZmd4JkkhB33-66" value="OLTP vs OLAP" style="rounded=1;whiteSpace=wrap;html=1;shadow=0;strokeColor=#005700;strokeWidth=1;fillColor=#008a00;fontColor=#ffffff;" vertex="1" parent="1">
          <mxGeometry x="820" y="840" width="123" height="31" as="geometry" />
        </mxCell>
        <mxCell id="cMhnpMqXnZmd4JkkhB33-67" value="Horizontal vs vertical scaling" style="rounded=1;whiteSpace=wrap;html=1;shadow=0;strokeColor=#005700;strokeWidth=1;fillColor=#008a00;fontColor=#ffffff;" vertex="1" parent="1">
          <mxGeometry x="823" y="888" width="123" height="31" as="geometry" />
        </mxCell>
        <mxCell id="cMhnpMqXnZmd4JkkhB33-68" value="" style="rounded=1;whiteSpace=wrap;html=1;shadow=0;strokeWidth=3;fillColor=none;fontColor=#000000;strokeColor=#B9E0A5;" vertex="1" parent="1">
          <mxGeometry x="769" y="777" width="194" height="152" as="geometry" />
        </mxCell>
        <mxCell id="cMhnpMqXnZmd4JkkhB33-77" style="edgeStyle=orthogonalEdgeStyle;curved=1;orthogonalLoop=1;jettySize=auto;html=1;entryX=0.826;entryY=0.006;entryDx=0;entryDy=0;entryPerimeter=0;dashed=1;endArrow=none;endFill=0;strokeColor=#000000;strokeWidth=2;fontColor=#000000;" edge="1" parent="1" source="cMhnpMqXnZmd4JkkhB33-70" target="cMhnpMqXnZmd4JkkhB33-76">
          <mxGeometry relative="1" as="geometry">
            <Array as="points">
              <mxPoint x="654" y="917" />
              <mxPoint x="336" y="917" />
            </Array>
          </mxGeometry>
        </mxCell>
        <mxCell id="cMhnpMqXnZmd4JkkhB33-70" value="Relational database" style="rounded=1;whiteSpace=wrap;html=1;shadow=0;strokeColor=#d6b656;strokeWidth=3;fillColor=#fff2cc;" vertex="1" parent="1">
          <mxGeometry x="561" y="852" width="185" height="40" as="geometry" />
        </mxCell>
        <mxCell id="cMhnpMqXnZmd4JkkhB33-71" style="edgeStyle=orthogonalEdgeStyle;curved=1;orthogonalLoop=1;jettySize=auto;html=1;endArrow=none;endFill=0;strokeWidth=5;fontColor=#000000;strokeColor=#CCCCCC;exitX=0.5;exitY=1;exitDx=0;exitDy=0;" edge="1" parent="1" source="cMhnpMqXnZmd4JkkhB33-53" target="cMhnpMqXnZmd4JkkhB33-70">
          <mxGeometry relative="1" as="geometry">
            <mxPoint x="672" y="745" as="sourcePoint" />
            <mxPoint x="628" y="642" as="targetPoint" />
          </mxGeometry>
        </mxCell>
        <mxCell id="cMhnpMqXnZmd4JkkhB33-72" value="MySQL" style="rounded=1;whiteSpace=wrap;html=1;shadow=0;strokeColor=#005700;strokeWidth=1;fillColor=#008a00;fontColor=#ffffff;" vertex="1" parent="1">
          <mxGeometry x="204" y="1017" width="137" height="32" as="geometry" />
        </mxCell>
        <mxCell id="cMhnpMqXnZmd4JkkhB33-73" value="PostgreSQL&lt;span style=&quot;color: rgba(0 , 0 , 0 , 0) ; font-family: monospace ; font-size: 0px&quot;&gt;%3CmxGraphModel%3E%3Croot%3E%3CmxCell%20id%3D%220%22%2F%3E%3CmxCell%20id%3D%221%22%20parent%3D%220%22%2F%3E%3CmxCell%20id%3D%222%22%20value%3D%22MySQL%22%20style%3D%22rounded%3D1%3BwhiteSpace%3Dwrap%3Bhtml%3D1%3Bshadow%3D0%3BstrokeColor%3D%23005700%3BstrokeWidth%3D1%3BfillColor%3D%23008a00%3BfontColor%3D%23ffffff%3B%22%20vertex%3D%221%22%20parent%3D%221%22%3E%3CmxGeometry%20x%3D%22399%22%20y%3D%22935%22%20width%3D%22137%22%20height%3D%2232%22%20as%3D%22geometry%22%2F%3E%3C%2FmxCell%3E%3C%2Froot%3E%3C%2FmxGraphModel%3E&lt;/span&gt;" style="rounded=1;whiteSpace=wrap;html=1;shadow=0;strokeColor=#005700;strokeWidth=1;fillColor=#008a00;fontColor=#ffffff;" vertex="1" parent="1">
          <mxGeometry x="204" y="1063" width="137" height="32" as="geometry" />
        </mxCell>
        <mxCell id="cMhnpMqXnZmd4JkkhB33-74" value="MariaDB" style="rounded=1;whiteSpace=wrap;html=1;shadow=0;strokeWidth=1;" vertex="1" parent="1">
          <mxGeometry x="204" y="1112" width="137" height="32" as="geometry" />
        </mxCell>
        <mxCell id="cMhnpMqXnZmd4JkkhB33-75" value="Amazon Aurora" style="rounded=1;whiteSpace=wrap;html=1;shadow=0;strokeWidth=1;" vertex="1" parent="1">
          <mxGeometry x="204" y="1161" width="137" height="32" as="geometry" />
        </mxCell>
        <mxCell id="cMhnpMqXnZmd4JkkhB33-76" value="" style="rounded=1;whiteSpace=wrap;html=1;shadow=0;strokeWidth=3;fillColor=none;fontColor=#000000;strokeColor=#B9E0A5;" vertex="1" parent="1">
          <mxGeometry x="175.5" y="1001" width="194" height="215" as="geometry" />
        </mxCell>
        <mxCell id="cMhnpMqXnZmd4JkkhB33-78" value="Non-relational database" style="rounded=1;whiteSpace=wrap;html=1;shadow=0;strokeColor=#d6b656;strokeWidth=3;fillColor=#fff2cc;" vertex="1" parent="1">
          <mxGeometry x="571" y="975" width="185" height="40" as="geometry" />
        </mxCell>
        <mxCell id="cMhnpMqXnZmd4JkkhB33-80" style="edgeStyle=orthogonalEdgeStyle;curved=1;orthogonalLoop=1;jettySize=auto;html=1;endArrow=none;endFill=0;strokeWidth=5;fontColor=#000000;strokeColor=#CCCCCC;exitX=0.5;exitY=1;exitDx=0;exitDy=0;entryX=0.5;entryY=0;entryDx=0;entryDy=0;" edge="1" parent="1" source="cMhnpMqXnZmd4JkkhB33-70" target="cMhnpMqXnZmd4JkkhB33-78">
          <mxGeometry relative="1" as="geometry">
            <mxPoint x="681.5" y="748" as="sourcePoint" />
            <mxPoint x="663.5" y="862" as="targetPoint" />
          </mxGeometry>
        </mxCell>
        <mxCell id="cMhnpMqXnZmd4JkkhB33-81" value="Document" style="rounded=1;whiteSpace=wrap;html=1;shadow=0;strokeColor=#6c8ebf;strokeWidth=1;fillColor=#dae8fc;" vertex="1" parent="1">
          <mxGeometry x="448" y="1072" width="137" height="32" as="geometry" />
        </mxCell>
        <mxCell id="cMhnpMqXnZmd4JkkhB33-82" value="&lt;font color=&quot;#000000&quot;&gt;MongoDB&lt;/font&gt;" style="rounded=1;whiteSpace=wrap;html=1;shadow=0;strokeColor=#005700;strokeWidth=1;fontColor=#ffffff;" vertex="1" parent="1">
          <mxGeometry x="450" y="1112" width="136" height="22" as="geometry" />
        </mxCell>
        <mxCell id="cMhnpMqXnZmd4JkkhB33-83" value="Elasticsearch" style="rounded=1;whiteSpace=wrap;html=1;shadow=0;strokeWidth=1;" vertex="1" parent="1">
          <mxGeometry x="450" y="1142" width="136" height="19" as="geometry" />
        </mxCell>
        <mxCell id="cMhnpMqXnZmd4JkkhB33-84" value="Apache CouchDB" style="rounded=1;whiteSpace=wrap;html=1;shadow=0;strokeWidth=1;" vertex="1" parent="1">
          <mxGeometry x="450" y="1166.5" width="137" height="21" as="geometry" />
        </mxCell>
        <mxCell id="cMhnpMqXnZmd4JkkhB33-85" value="Wide column" style="rounded=1;whiteSpace=wrap;html=1;shadow=0;strokeColor=#6c8ebf;strokeWidth=1;fillColor=#dae8fc;" vertex="1" parent="1">
          <mxGeometry x="617" y="1072" width="137" height="32" as="geometry" />
        </mxCell>
        <mxCell id="cMhnpMqXnZmd4JkkhB33-86" value="&lt;font color=&quot;#000000&quot;&gt;Apache Cassandra&lt;/font&gt;" style="rounded=1;whiteSpace=wrap;html=1;shadow=0;strokeColor=#005700;strokeWidth=1;fontColor=#ffffff;" vertex="1" parent="1">
          <mxGeometry x="619" y="1112" width="136" height="22" as="geometry" />
        </mxCell>
        <mxCell id="cMhnpMqXnZmd4JkkhB33-87" value="Apache HBase" style="rounded=1;whiteSpace=wrap;html=1;shadow=0;strokeWidth=1;" vertex="1" parent="1">
          <mxGeometry x="619" y="1142" width="136" height="19" as="geometry" />
        </mxCell>
        <mxCell id="cMhnpMqXnZmd4JkkhB33-88" value="Google Bigtable" style="rounded=1;whiteSpace=wrap;html=1;shadow=0;strokeWidth=1;" vertex="1" parent="1">
          <mxGeometry x="619" y="1166.5" width="137" height="21" as="geometry" />
        </mxCell>
        <mxCell id="cMhnpMqXnZmd4JkkhB33-89" value="Graph" style="rounded=1;whiteSpace=wrap;html=1;shadow=0;strokeColor=#6c8ebf;strokeWidth=1;fillColor=#dae8fc;" vertex="1" parent="1">
          <mxGeometry x="787" y="1072" width="137" height="32" as="geometry" />
        </mxCell>
        <mxCell id="cMhnpMqXnZmd4JkkhB33-90" value="&lt;font color=&quot;#000000&quot;&gt;Neo4j&lt;/font&gt;" style="rounded=1;whiteSpace=wrap;html=1;shadow=0;strokeColor=#d6b656;strokeWidth=1;fillColor=#fff2cc;" vertex="1" parent="1">
          <mxGeometry x="789" y="1112" width="136" height="22" as="geometry" />
        </mxCell>
        <mxCell id="cMhnpMqXnZmd4JkkhB33-91" value="Amazon Neptune" style="rounded=1;whiteSpace=wrap;html=1;shadow=0;strokeWidth=1;" vertex="1" parent="1">
          <mxGeometry x="788" y="1142" width="137" height="19" as="geometry" />
        </mxCell>
        <mxCell id="cMhnpMqXnZmd4JkkhB33-93" value="Key-value" style="rounded=1;whiteSpace=wrap;html=1;shadow=0;strokeColor=#6c8ebf;strokeWidth=1;fillColor=#dae8fc;" vertex="1" parent="1">
          <mxGeometry x="955" y="1072" width="137" height="32" as="geometry" />
        </mxCell>
        <mxCell id="cMhnpMqXnZmd4JkkhB33-94" value="&lt;font color=&quot;#000000&quot;&gt;Redis&lt;/font&gt;" style="rounded=1;whiteSpace=wrap;html=1;shadow=0;strokeColor=#005700;strokeWidth=1;fontColor=#ffffff;" vertex="1" parent="1">
          <mxGeometry x="957" y="1112" width="136" height="22" as="geometry" />
        </mxCell>
        <mxCell id="cMhnpMqXnZmd4JkkhB33-95" value="Memcached" style="rounded=1;whiteSpace=wrap;html=1;shadow=0;strokeWidth=1;" vertex="1" parent="1">
          <mxGeometry x="957" y="1142" width="136" height="19" as="geometry" />
        </mxCell>
        <mxCell id="cMhnpMqXnZmd4JkkhB33-96" value="Amazon DynamoDB" style="rounded=1;whiteSpace=wrap;html=1;shadow=0;strokeWidth=1;fillColor=#fff2cc;strokeColor=#d6b656;" vertex="1" parent="1">
          <mxGeometry x="957" y="1166.5" width="137" height="21" as="geometry" />
        </mxCell>
        <mxCell id="cMhnpMqXnZmd4JkkhB33-104" value="" style="rounded=1;whiteSpace=wrap;html=1;shadow=0;strokeWidth=3;fillColor=none;fontColor=#000000;strokeColor=#FFE599;" vertex="1" parent="1">
          <mxGeometry x="400" y="1045" width="707" height="166" as="geometry" />
        </mxCell>
        <mxCell id="cMhnpMqXnZmd4JkkhB33-105" style="edgeStyle=orthogonalEdgeStyle;curved=1;orthogonalLoop=1;jettySize=auto;html=1;endArrow=none;endFill=0;strokeWidth=5;fontColor=#000000;strokeColor=#CCCCCC;exitX=0.354;exitY=-0.015;exitDx=0;exitDy=0;entryX=0.467;entryY=0.986;entryDx=0;entryDy=0;exitPerimeter=0;entryPerimeter=0;" edge="1" parent="1" source="cMhnpMqXnZmd4JkkhB33-104" target="cMhnpMqXnZmd4JkkhB33-78">
          <mxGeometry relative="1" as="geometry">
            <mxPoint x="663.5" y="902" as="sourcePoint" />
            <mxPoint x="673.5" y="985" as="targetPoint" />
          </mxGeometry>
        </mxCell>
        <mxCell id="cMhnpMqXnZmd4JkkhB33-114" style="edgeStyle=orthogonalEdgeStyle;curved=1;orthogonalLoop=1;jettySize=auto;html=1;entryX=0;entryY=0.5;entryDx=0;entryDy=0;dashed=1;endArrow=none;endFill=0;strokeColor=#000000;strokeWidth=2;fontColor=#000000;" edge="1" parent="1" source="cMhnpMqXnZmd4JkkhB33-106" target="cMhnpMqXnZmd4JkkhB33-113">
          <mxGeometry relative="1" as="geometry" />
        </mxCell>
        <mxCell id="cMhnpMqXnZmd4JkkhB33-106" value="Data warehouses" style="rounded=1;whiteSpace=wrap;html=1;shadow=0;strokeColor=#d6b656;strokeWidth=3;fillColor=#fff2cc;" vertex="1" parent="1">
          <mxGeometry x="631" y="1258" width="186" height="40" as="geometry" />
        </mxCell>
        <mxCell id="cMhnpMqXnZmd4JkkhB33-107" style="edgeStyle=orthogonalEdgeStyle;curved=1;orthogonalLoop=1;jettySize=auto;html=1;endArrow=none;endFill=0;strokeWidth=5;fontColor=#000000;strokeColor=#CCCCCC;entryX=0.5;entryY=0;entryDx=0;entryDy=0;" edge="1" parent="1" target="cMhnpMqXnZmd4JkkhB33-106">
          <mxGeometry relative="1" as="geometry">
            <mxPoint x="724" y="1211" as="sourcePoint" />
            <mxPoint x="667.395" y="1024.44" as="targetPoint" />
          </mxGeometry>
        </mxCell>
        <mxCell id="cMhnpMqXnZmd4JkkhB33-108" value="Snowflake" style="rounded=1;whiteSpace=wrap;html=1;shadow=0;strokeWidth=1;" vertex="1" parent="1">
          <mxGeometry x="941" y="1254" width="136" height="26" as="geometry" />
        </mxCell>
        <mxCell id="cMhnpMqXnZmd4JkkhB33-109" value="&lt;font color=&quot;#000000&quot;&gt;Presto&lt;/font&gt;" style="rounded=1;whiteSpace=wrap;html=1;shadow=0;strokeColor=#005700;strokeWidth=1;fontColor=#ffffff;" vertex="1" parent="1">
          <mxGeometry x="943" y="1288" width="136" height="22" as="geometry" />
        </mxCell>
        <mxCell id="cMhnpMqXnZmd4JkkhB33-110" value="Apache Hive" style="rounded=1;whiteSpace=wrap;html=1;shadow=0;strokeWidth=1;" vertex="1" parent="1">
          <mxGeometry x="943" y="1318" width="136" height="19" as="geometry" />
        </mxCell>
        <mxCell id="cMhnpMqXnZmd4JkkhB33-111" value="Amazon Redshift" style="rounded=1;whiteSpace=wrap;html=1;shadow=0;strokeWidth=1;" vertex="1" parent="1">
          <mxGeometry x="943" y="1342.5" width="137" height="21" as="geometry" />
        </mxCell>
        <mxCell id="cMhnpMqXnZmd4JkkhB33-112" value="Google Bigquery" style="rounded=1;whiteSpace=wrap;html=1;shadow=0;strokeWidth=1;fillColor=#008a00;strokeColor=#005700;fontColor=#ffffff;" vertex="1" parent="1">
          <mxGeometry x="943" y="1372" width="137" height="21" as="geometry" />
        </mxCell>
        <mxCell id="cMhnpMqXnZmd4JkkhB33-113" value="" style="rounded=1;whiteSpace=wrap;html=1;shadow=0;strokeWidth=3;fillColor=none;fontColor=#000000;strokeColor=#FFE599;" vertex="1" parent="1">
          <mxGeometry x="927" y="1240" width="160" height="171" as="geometry" />
        </mxCell>
        <mxCell id="cMhnpMqXnZmd4JkkhB33-115" value="Cluster computing fundamentals" style="rounded=1;whiteSpace=wrap;html=1;shadow=0;strokeColor=#d6b656;strokeWidth=3;fillColor=#fff2cc;" vertex="1" parent="1">
          <mxGeometry x="594" y="1362.5" width="186" height="40" as="geometry" />
        </mxCell>
        <mxCell id="cMhnpMqXnZmd4JkkhB33-116" style="edgeStyle=orthogonalEdgeStyle;curved=1;orthogonalLoop=1;jettySize=auto;html=1;endArrow=none;endFill=0;strokeWidth=5;fontColor=#000000;strokeColor=#CCCCCC;entryX=0.5;entryY=1;entryDx=0;entryDy=0;" edge="1" parent="1" target="cMhnpMqXnZmd4JkkhB33-106">
          <mxGeometry relative="1" as="geometry">
            <mxPoint x="685" y="1362" as="sourcePoint" />
            <mxPoint x="734" y="1268" as="targetPoint" />
            <Array as="points">
              <mxPoint x="724" y="1362" />
            </Array>
          </mxGeometry>
        </mxCell>
        <mxCell id="cMhnpMqXnZmd4JkkhB33-118" value="Snowflake" style="rounded=1;whiteSpace=wrap;html=1;shadow=0;strokeWidth=1;" vertex="1" parent="1">
          <mxGeometry x="182" y="1353" width="136" height="26" as="geometry" />
        </mxCell>
        <mxCell id="cMhnpMqXnZmd4JkkhB33-119" value="&lt;font color=&quot;#000000&quot;&gt;Presto&lt;/font&gt;" style="rounded=1;whiteSpace=wrap;html=1;shadow=0;strokeColor=#005700;strokeWidth=1;fontColor=#ffffff;" vertex="1" parent="1">
          <mxGeometry x="184" y="1387" width="136" height="22" as="geometry" />
        </mxCell>
        <mxCell id="cMhnpMqXnZmd4JkkhB33-120" value="Apache Hive" style="rounded=1;whiteSpace=wrap;html=1;shadow=0;strokeWidth=1;" vertex="1" parent="1">
          <mxGeometry x="184" y="1417" width="136" height="19" as="geometry" />
        </mxCell>
        <mxCell id="cMhnpMqXnZmd4JkkhB33-121" value="Amazon Redshift" style="rounded=1;whiteSpace=wrap;html=1;shadow=0;strokeWidth=1;" vertex="1" parent="1">
          <mxGeometry x="184" y="1441.5" width="137" height="21" as="geometry" />
        </mxCell>
        <mxCell id="cMhnpMqXnZmd4JkkhB33-122" value="Google Bigquery" style="rounded=1;whiteSpace=wrap;html=1;shadow=0;strokeWidth=1;fillColor=#008a00;strokeColor=#005700;fontColor=#ffffff;" vertex="1" parent="1">
          <mxGeometry x="184" y="1471" width="137" height="21" as="geometry" />
        </mxCell>
      </root>
    </mxGraphModel>
  </diagram>
</mxfile>
